<?xml version="1.0" encoding="UTF-8" standalone="no" ?>
<!DOCTYPE svg PUBLIC "-//W3C//DTD SVG 1.1//EN" "http://www.w3.org/Graphics/SVG/1.1/DTD/svg11.dtd">
<svg xmlns="http://www.w3.org/2000/svg" xmlns:xlink="http://www.w3.org/1999/xlink" version="1.1" width="1080" height="1080" viewBox="0 0 1080 1080" xml:space="preserve">
<desc>Created with Fabric.js 5.2.4</desc>
<defs>
</defs>
<g transform="matrix(1 0 0 1 540 540)" id="a242a279-7f4a-45ae-820f-8a8c19be61ca"  >
</g>
<g transform="matrix(1 0 0 1 540 540)" id="20d81166-9a9a-4bb9-8d0e-2707bd4fedae"  >
<rect style="stroke: none; stroke-width: 1; stroke-dasharray: none; stroke-linecap: butt; stroke-dashoffset: 0; stroke-linejoin: miter; stroke-miterlimit: 4; fill: rgb(255,255,255); fill-rule: nonzero; opacity: 1; visibility: hidden;" vector-effect="non-scaling-stroke"  x="-540" y="-540" rx="0" ry="0" width="1080" height="1080" />
</g>
<g transform="matrix(1 0 0 1 540 540)"  >
<path style="stroke: none; stroke-width: 1; stroke-dasharray: none; stroke-linecap: butt; stroke-dashoffset: 0; stroke-linejoin: miter; stroke-miterlimit: 4; fill: rgb(255,255,255); fill-opacity: 0; fill-rule: nonzero; opacity: 1;" vector-effect="non-scaling-stroke"  transform=" translate(-251, -251)" d="M 329 501 C 220.666687 501 112.833359 500.979126 5.00018 501.095367 C 1.57635 501.09906 0.903033 500.423889 0.905298 497.000031 C 1.013776 333.000122 1.013757 169.000153 0.905338 5.000259 C 0.903075 1.576985 1.575757 0.90302 4.999864 0.905285 C 168.999756 1.013775 332.999725 1.01376 496.999634 0.905354 C 500.422638 0.903091 501.096985 1.575408 501.094727 4.999745 C 500.986206 168.999634 500.986237 332.999603 501.094604 496.999512 C 501.096893 500.422272 500.426086 501.105591 497.000183 501.097198 C 441.167053 500.960022 385.333466 501 329 501 z" stroke-linecap="round" />
</g>
<g transform="matrix(1.26 0 0 1.26 471.58 547.76)"  >
<path style="stroke: none; stroke-width: 1; stroke-dasharray: none; stroke-linecap: butt; stroke-dashoffset: 0; stroke-linejoin: miter; stroke-miterlimit: 4; fill: rgb(121,9,208); fill-rule: nonzero; opacity: 1;" vector-effect="non-scaling-stroke"  transform=" translate(-212.38, -257.14)" d="M 110.802261 354.999939 C 110.802269 283.355072 110.848602 212.210068 110.695297 141.065521 C 110.685364 136.457336 111.889816 135.23172 116.460762 135.323349 C 131.283585 135.62056 146.118134 135.566711 160.943481 135.340775 C 164.615677 135.28479 166.537766 136.585373 168.418945 139.618347 C 199.11644 189.110626 229.938187 238.525803 260.731934 287.958374 C 261.347412 288.946381 261.98114 289.923615 262.574158 290.924927 C 263.472473 292.441711 264.84494 292.0242 266.130463 291.7789 C 267.581848 291.501923 267.812592 290.375061 267.799438 289.119629 C 267.785492 287.786926 267.805145 286.453857 267.805176 285.120972 C 267.805664 236.969055 267.854095 188.816986 267.717163 140.665451 C 267.705688 136.633942 268.560181 135.222641 272.864105 135.328156 C 285.186279 135.630264 297.52182 135.528793 309.849365 135.371216 C 313.048462 135.330322 314.061035 136.162704 314.056732 139.53157 C 313.956451 217.84079 313.957123 296.150208 314.052643 374.459442 C 314.056854 377.917816 313.195831 378.983398 309.647369 378.927856 C 296.321381 378.719208 282.987854 378.707611 269.662445 378.934296 C 266.03363 378.996002 264.022491 377.811462 262.132477 374.7388 C 229.528656 321.7341 196.805023 268.80304 164.106308 215.856735 C 163.494843 214.866623 162.843765 213.90033 162.252853 212.898346 C 161.368988 211.399597 159.998535 211.784805 158.697739 211.953354 C 157.044052 212.167603 157.213974 213.461227 157.1978 214.615402 C 157.181473 215.781494 157.190384 216.947968 157.190384 218.114273 C 157.190155 269.765137 157.110382 321.41629 157.317322 373.066315 C 157.337357 378.067963 155.882278 379.090393 151.202957 378.959015 C 139.049591 378.617798 126.87912 378.753021 114.718163 378.908325 C 111.684372 378.947083 110.639244 378.090851 110.739319 374.991364 C 110.948898 368.500305 110.802521 361.997772 110.802261 354.999939 z" stroke-linecap="round" />
</g>
<g transform="matrix(1.26 0 0 1.26 698.84 540)"  >
<path style="stroke: none; stroke-width: 1; stroke-dasharray: none; stroke-linecap: butt; stroke-dashoffset: 0; stroke-linejoin: miter; stroke-miterlimit: 4; fill: rgb(122,11,209); fill-rule: nonzero; opacity: 1;" vector-effect="non-scaling-stroke"  transform=" translate(-392.99, -250.98)" d="M 422.682373 308.000061 C 422.682373 339.496826 422.564209 370.494537 422.807159 401.48941 C 422.844635 406.270325 421.348328 407.172699 416.967499 407.104523 C 400.973053 406.85556 384.969696 406.845856 368.975739 407.10965 C 364.52948 407.182983 363.17041 406.166595 363.178558 401.458191 C 363.333832 311.801147 363.293121 222.143738 363.293152 132.486404 C 363.293152 121.487549 363.479309 110.483856 363.193634 99.492424 C 363.091919 95.578773 364.394836 94.837044 368.006561 94.879021 C 384.335968 95.068779 400.671387 95.120354 416.99881 94.857986 C 421.456787 94.786346 422.808899 95.820282 422.797485 100.521896 C 422.630463 169.514313 422.682556 238.507248 422.682373 308.000061 z" stroke-linecap="round" />
</g>
</svg>