<?xml version="1.0" encoding="UTF-8" standalone="no" ?>
<!DOCTYPE svg PUBLIC "-//W3C//DTD SVG 1.1//EN" "http://www.w3.org/Graphics/SVG/1.1/DTD/svg11.dtd">
<svg xmlns="http://www.w3.org/2000/svg" xmlns:xlink="http://www.w3.org/1999/xlink" version="1.1" width="1080" height="1080" viewBox="0 0 1080 1080" xml:space="preserve">
<desc>Created with Fabric.js 5.2.4</desc>
<defs>
</defs>
<g transform="matrix(1 0 0 1 540 540)" id="039af570-d44c-47e0-9370-696e3820109d"  >
<rect style="stroke: none; stroke-width: 1; stroke-dasharray: none; stroke-linecap: butt; stroke-dashoffset: 0; stroke-linejoin: miter; stroke-miterlimit: 4; fill: rgb(255,255,255); fill-rule: nonzero; opacity: 1; visibility: hidden;" vector-effect="non-scaling-stroke"  x="-540" y="-540" rx="0" ry="0" width="1080" height="1080" />
</g>
<g transform="matrix(1 0 0 1 540 540)" id="8ee9a5e5-8dc0-4058-abac-c099f6dfce54"  >
</g>
<g transform="matrix(4.1 0 0 4.1 378.63 556.4)"  >
<path style="stroke: none; stroke-width: 1; stroke-dasharray: none; stroke-linecap: butt; stroke-dashoffset: 0; stroke-linejoin: miter; stroke-miterlimit: 4; fill: rgb(2,2,2); fill-rule: nonzero; opacity: 1;" vector-effect="non-scaling-stroke"  transform=" translate(-220.46, -255.02)" d="M 189.123184 230.91629 C 187.463959 228.190781 185.954849 225.799149 184.500107 223.374908 C 183.931961 222.428162 183.255356 221.890854 182.090118 222.117401 C 180.806488 222.366974 180.655975 223.328522 180.624344 224.353058 C 180.588364 225.51825 180.605942 226.685196 180.605927 227.851379 C 180.605331 264.337128 180.487686 300.82373 180.742065 337.307709 C 180.777115 342.337067 179.311935 343.342865 174.672165 343.115875 C 166.528183 342.717407 158.348511 342.899536 150.1884 343.065338 C 147.569794 343.1185 146.863724 342.366028 146.867142 339.748596 C 146.940872 283.270721 146.940399 226.792725 146.869034 170.314865 C 146.865753 167.719894 147.514587 166.927277 150.179977 166.96312 C 161.340256 167.113205 172.506912 167.171997 183.663971 166.929825 C 186.670319 166.864578 187.664062 168.529495 188.901962 170.51799 C 210.785889 205.670731 232.687714 240.812347 254.587967 275.954926 C 255.290833 277.082794 256.022217 278.192841 256.733582 279.31546 C 257.408295 280.380219 258.393555 280.211304 259.382996 279.979828 C 260.447174 279.730927 260.452148 278.864227 260.463287 278.027069 C 260.47879 276.861023 260.476074 275.694702 260.476074 274.528503 C 260.476654 240.375168 260.559357 206.221375 260.370483 172.069077 C 260.347168 167.860626 261.421539 166.738205 265.573364 166.922867 C 273.554443 167.277832 281.567291 167.187408 289.557098 166.949158 C 292.880371 166.850067 294.062012 167.497574 294.053375 171.185303 C 293.922638 226.996552 293.932831 282.808258 294.037079 338.619598 C 294.043274 341.945557 293.496033 343.220612 289.803528 343.101593 C 280.649933 342.806519 271.476135 342.845276 262.319733 343.092987 C 259.207031 343.177216 257.619507 342.047791 256.063873 339.515747 C 233.866684 303.386597 211.56871 267.319336 189.123184 230.91629 z" stroke-linecap="round" />
</g>
<g transform="matrix(4.1 0 0 4.1 914.74 540)"  >
<path style="stroke: none; stroke-width: 1; stroke-dasharray: none; stroke-linecap: butt; stroke-dashoffset: 0; stroke-linejoin: miter; stroke-miterlimit: 4; fill: rgb(2,2,2); fill-rule: nonzero; opacity: 1;" vector-effect="non-scaling-stroke"  transform=" translate(-351.37, -251.02)" d="M 372.751434 152.009613 C 372.751434 221.152237 372.7034 289.797211 372.860077 358.441681 C 372.870453 362.992279 371.762787 364.264496 367.18924 364.119202 C 356.037384 363.764923 344.864319 363.87738 333.705078 364.085144 C 330.589478 364.143127 329.877014 363.306549 329.880951 360.237061 C 329.974304 287.427002 329.972168 214.61676 329.886444 141.806656 C 329.882935 138.820694 330.467194 137.852081 333.661377 137.91037 C 345.487 138.12619 357.319946 138.078232 369.147797 137.935806 C 371.931061 137.902298 373.020935 138.603378 372.807312 141.519089 C 372.564484 144.833588 372.751373 148.179565 372.751434 152.009613 z" stroke-linecap="round" />
</g>
</svg>